<?xml version="1.0" encoding="UTF-8"?>
<svg width="22px" height="22px" viewBox="0 0 22 22" version="1.1" xmlns="http://www.w3.org/2000/svg" xmlns:xlink="http://www.w3.org/1999/xlink">
    <title>编组备份</title>
    <defs>
        <polygon id="path-1" points="2.89272463e-06 0.0311555556 21.9702588 0.0311555556 21.9702588 22 2.89272463e-06 22"></polygon>
        <linearGradient x1="50%" y1="0%" x2="50%" y2="95.2412373%" id="linearGradient-3">
            <stop stop-color="#236BB9" offset="0%"></stop>
            <stop stop-color="#2089C9" offset="33.8260135%"></stop>
            <stop stop-color="#2187C8" offset="78.1144426%"></stop>
            <stop stop-color="#2373BE" offset="100%"></stop>
        </linearGradient>
    </defs>
    <g id="正式设计" stroke="none" stroke-width="1" fill="none" fill-rule="evenodd">
        <g id="统一认证单点登录" transform="translate(-1416.000000, -762.000000)">
            <g id="编组备份" transform="translate(1416.000000, 762.000000)">
                <g id="编组">
                    <mask id="mask-2" fill="white">
                        <use xlink:href="#path-1"></use>
                    </mask>
                    <g id="Clip-2"></g>
                    <path d="M6.51101333,0.0332577778 C2.79025778,0.0366355556 0.0145244444,2.81112444 0.01088,6.53134667 C0.00803555556,9.53525778 0.0477688889,12.5397022 0.000791111111,15.5428133 C-0.0563644444,19.1921911 3.00328,22.10228 6.42825778,21.9972578 C7.94648,21.9506356 9.46728,21.9893467 10.98688,21.9895244 C12.5418578,21.9897911 14.09688,22.0021022 15.65168,21.9871689 C19.2338578,21.9529911 21.96688,19.1846356 21.9694133,15.59908 C21.9715467,12.5598356 21.9686133,9.52059111 21.9702599,6.48134667 C21.9722578,2.85001333 19.15648,0.0315244444 15.5226578,0.0313466667 C12.5187911,0.0312577778 9.51492444,0.0303244444 6.51101333,0.0332577778 Z" id="Fill-1" fill="url(#linearGradient-3)" mask="url(#mask-2)"></path>
                </g>
                <path d="M4.22725859,16.4551536 C4.58412628,16.4551536 4.94099398,16.4570612 5.29786167,16.4537341 C5.38158953,16.4528912 5.48482418,16.4654455 5.47613965,16.3248199 C5.46883573,16.2045118 5.39063035,16.1865454 5.2944324,16.1866777 C4.59557206,16.1869003 3.89666718,16.1862349 3.19776231,16.1877432 C3.1130992,16.187965 3.0135165,16.1741242 3.00011114,16.3025061 C2.98327649,16.463671 3.09604188,16.4549762 3.20119159,16.4551536 C3.5432733,16.4555085 3.88522141,16.4553311 4.22725859,16.4551536 L4.22725859,16.4551536 Z M4.26253117,15.4216663 C4.58898072,15.4216663 4.91538573,15.4217994 5.24179074,15.4214445 C5.34409014,15.421267 5.46986006,15.4413627 5.48308728,15.2967446 C5.49537924,15.1629506 5.39931489,15.1291029 5.27848848,15.129455 C4.58109783,15.1315428 3.88370718,15.1303894 3.18636107,15.1298127 C3.09243445,15.1298127 3.00910743,15.1399714 2.99859691,15.2606344 C2.9855033,15.4113744 3.07747033,15.4230415 3.19424396,15.4220212 C3.55031,15.4185166 3.90642059,15.4206016 4.26253117,15.4216663 L4.26253117,15.4216663 Z M7.21932678,15.7541106 C7.14379357,15.579859 7.37186289,15.269418 7.09159727,15.1570506 C6.88570692,15.0743609 6.61973739,15.1270623 6.38178105,15.1411692 C6.16471215,15.1540784 6.2322734,15.3424812 6.24670309,15.4509448 C6.29097197,15.7842763 6.04860656,16.2432393 6.36940002,16.4293353 C6.84691599,16.7063278 7.21888142,16.4180231 7.21932678,15.8786773 L7.21932678,15.7541106 Z M18.6751673,13.1692166 C18.6751673,10.7088895 18.6938725,8.33089711 18.665503,5.95352578 C18.6549034,5.06465658 17.8892834,4.38721377 17.0630053,4.4258969 C16.202479,4.46639885 15.5663255,5.15085076 15.565123,6.05267349 C15.56205,8.31430595 15.5634752,10.5760271 15.5672162,12.8376152 C15.5673498,12.9285117 15.5097201,13.0425649 15.6287205,13.1178905 C16.6233896,12.4164038 17.6193057,12.4312205 18.6751673,13.1692166 L18.6751673,13.1692166 Z M8.9294236,6.36555438 C7.07707851,6.36555438 5.22468888,6.37376124 3.37252193,6.35756933 C3.05310909,6.35477456 2.98225293,6.44669137 2.98394454,6.75211955 C2.99663732,9.16254011 2.99917588,11.573005 2.98225293,13.98347 C2.97984722,14.328646 3.07969713,14.4015761 3.40748276,14.3973618 C4.81139395,14.3795728 6.21579504,14.3973618 7.61988438,14.3834323 C7.88986216,14.380815 7.98499126,14.4378637 7.96878012,14.7228856 C7.9425929,15.182514 7.97746466,15.6456026 7.95693352,16.1059407 C7.94517599,16.3705564 8.00690301,16.4640703 8.29625399,16.4630146 C11.2390207,16.452004 14.1819211,16.4621184 17.1247324,16.4528912 C17.9657519,16.4502739 18.6357529,15.7863613 18.6742766,14.9677605 C18.7112415,14.1826526 18.1124538,13.4927886 17.2859085,13.3678669 C16.541265,13.2554108 15.7389028,13.7859731 15.6093919,14.5847443 C15.5337696,15.0504502 15.2618322,14.9174103 15.0119402,14.9253954 C14.6663401,14.936397 14.797009,14.6661918 14.7966082,14.5060472 C14.7900614,11.9617883 14.7789719,9.41726322 14.804313,6.87300434 C14.8088111,6.42575279 14.6773406,6.34914067 14.2622197,6.35490765 C12.4849624,6.37970567 10.7071262,6.36555438 8.9294236,6.36555438 L8.9294236,6.36555438 Z M9.83853882,17.2252674 C7.43292187,17.2252674 5.02726039,17.2182583 2.62173251,17.2333333 C2.2845943,17.2353818 2.2,17.1488771 2.20113367,16.8130613 C2.21427181,13.2260879 2.2157415,9.63929199 2.2,6.0523186 C2.19837243,5.67626708 2.29675265,5.58656835 2.66764922,5.58794355 C6.55253243,5.60178431 10.4374602,5.59335564 14.3223879,5.60191739 C14.6500845,5.60258281 14.8309455,5.56425457 14.9538206,5.18731582 C15.29421,4.14353664 16.3964782,3.52394109 17.4674821,3.69486553 C18.5867632,3.87364194 19.4216367,4.82483889 19.4249769,5.9631522 C19.4338841,8.92498486 19.4363336,11.8868619 19.4290742,14.8486058 C19.4256004,16.277575 18.4273685,17.2124913 16.9210688,17.2155079 C14.5602552,17.2202102 12.199397,17.2167056 9.83853882,17.2167056 L9.83853882,17.2252674 Z" id="Fill-3" fill="#FFFFFF"></path>
                <path d="M10.3603226,11.849764 C10.1070006,11.7985621 9.9817997,11.8542163 9.98955632,12.156112 C9.99644602,12.4264325 10.0358223,12.5425567 10.3463151,12.5343789 C10.6179336,12.5272007 10.6973704,12.456463 10.6867849,12.1890048 C10.6773401,11.9499416 10.6704048,11.7688041 10.3603226,11.849764 M8.80877107,12.1903223 C8.7878282,11.9604818 8.78335674,11.7918836 9.04730985,11.8327724 C9.30619835,11.8728889 9.32180284,11.7008833 9.29465468,11.5231987 C9.24724806,11.2138067 9.35652511,11.0821902 9.67728404,11.1362543 C9.89264423,11.1725544 10.0327196,11.1129476 9.99384527,10.8523042 C9.95460591,10.5903432 10.1572361,10.632913 10.2926575,10.6543569 C10.4377975,10.677391 10.7100092,10.5138357 10.6923058,10.8398558 C10.6764732,11.1337555 10.8335675,11.1687836 11.0540836,11.1362543 C11.3574585,11.0914129 11.4540969,11.22362 11.4145837,11.5081153 C11.3875268,11.7031549 11.40158,11.8781136 11.6837384,11.8355892 C11.9262923,11.7989256 11.9298513,11.9700679 11.9007411,12.1258089 C11.8731367,12.2727814 12.0336074,12.5453735 11.7099283,12.5256106 C11.410021,12.507256 11.3840592,12.6627244 11.4156788,12.8816158 C11.4577927,13.1731984 11.3439073,13.2958649 11.0466463,13.2517049 C10.8225714,13.2183578 10.6630132,13.254022 10.693994,13.5485577 C10.7210966,13.805612 10.5062383,13.7481859 10.3706343,13.733148 C10.2334791,13.7180645 9.97887956,13.8499537 10.0004156,13.5572352 C10.0209934,13.279055 9.90487231,13.2127697 9.6654666,13.2510689 C9.3736353,13.2975458 9.25432027,13.1798769 9.29561285,12.8862953 C9.32622868,12.6687214 9.29766608,12.5053025 8.99985761,12.5288362 C8.6604828,12.5555048 8.88255018,12.2621503 8.80877107,12.1903223" id="Fill-5" fill="#FFFFFF"></path>
                <path d="M5.06513031,11.7497688 C5.34261982,11.6998891 5.49830746,11.7473 5.49999006,12.121284 C5.50190636,12.5592293 5.22623968,12.4251802 4.9964707,12.4573666 C4.67649543,12.5021258 4.59699238,12.3870046 4.58413915,12.0754732 C4.56773376,11.6783553 4.80432663,11.7382933 5.06513031,11.7497688" id="Fill-7" fill="#FFFFFF"></path>
                <path d="M6.49869206,12.4530802 C6.22473336,12.4919158 6.06612818,12.4629396 6.05092142,12.1001348 C6.03230378,11.6583628 6.29920389,11.7660286 6.54483348,11.740061 C6.85413252,11.7073818 6.96157474,11.7873673 6.96654891,12.1214735 C6.97247055,12.5151986 6.75422263,12.4766871 6.49869206,12.4530802" id="Fill-9" fill="#FFFFFF"></path>
                <path d="M3.81739772,11.7433167 C4.00527183,11.7271826 4.21064886,11.6833968 4.21653022,12.0795676 C4.22255273,12.4788626 4.02860906,12.4604436 3.75274983,12.4658061 C3.46541019,12.4713085 3.25909214,12.4619358 3.30689582,12.0758372 C3.34778302,11.746301 3.31837623,11.7428038 3.81739772,11.7433167" id="Fill-11" fill="#FFFFFF"></path>
                <path d="M10.6180618,8.39761882 C10.6705759,8.66811769 10.5964194,8.7819102 10.2578466,8.79874564 C9.82250583,8.82029689 9.92301168,8.56026711 9.90510706,8.31726141 C9.88452597,8.03747238 9.91138291,7.89161237 10.2678603,7.88359549 C10.6949871,7.87411671 10.6217535,8.1231115 10.6180618,8.39761882" id="Fill-13" fill="#FFFFFF"></path>
                <path d="M7.8738398,11.747305 C8.13304158,11.694735 8.2367128,11.7847761 8.24928619,12.1155254 C8.26565533,12.5467192 7.99743867,12.4381727 7.75854412,12.460683 C7.46276088,12.4885331 7.34466584,12.4280454 7.33384797,12.0891483 C7.31994606,11.6530749 7.58991826,11.7574784 7.8738398,11.747305" id="Fill-15" fill="#FFFFFF"></path>
                <path d="M9.91446606,9.72134292 C9.85974686,9.46166577 9.95548256,9.36490845 10.2836603,9.35088977 C10.7190309,9.33241921 10.6022141,9.60502574 10.626549,9.84215933 C10.6572541,10.1421402 10.5922235,10.2533424 10.255155,10.2659403 C9.81272684,10.2827059 9.92816878,10.0065 9.91446606,9.72134292" id="Fill-17" fill="#FFFFFF"></path>
                <path d="M10.6161052,15.6063141 C10.6739582,15.846484 10.5943639,15.9416572 10.2508149,15.9496489 C9.8561809,15.9588641 9.90142497,15.7853804 9.90170311,15.5833333" id="Fill-19" fill="#FFFFFF"></path>
                <path d="M14.0287613,11.7550027 C14.3339807,11.6919458 14.4780753,11.7524916 14.4832316,12.1246481 C14.4887664,12.5235432 14.2675628,12.4644856 14.0265852,12.462486 C13.788919,12.4604864 13.5626063,12.5293095 13.566722,12.1251596 C13.5706957,11.7461673 13.7241569,11.6978981 14.0287613,11.7550027" id="Fill-21" fill="#FFFFFF"></path>
                <path d="M12.8176735,11.930996 C13.0725564,11.8796316 13.1862748,11.9584946 13.1992484,12.2961572 C13.2160158,12.7308926 12.949096,12.6220938 12.711121,12.6439363 C12.4232185,12.6702853 12.2935289,12.6218639 12.2837401,12.2749585 C12.2715158,11.8383837 12.5367496,11.9389513 12.8176735,11.930996" id="Fill-23" fill="#FFFFFF"></path>
                <path d="M9.91446606,14.4880096 C9.85974686,14.2283324 9.95548256,14.1315278 10.2836603,14.1175564 C10.7190309,14.0990859 10.6022141,14.3716924 10.626549,14.608826 C10.6572541,14.9088068 10.5922235,15.0200091 10.255155,15.032607 C9.81272684,15.0493726 9.92816878,14.7731666 9.91446606,14.4880096" id="Fill-25" fill="#FFFFFF"></path>
            </g>
        </g>
    </g>
</svg>